# Blender v2.83.4 OBJ File: ''
# www.blender.org
o Plane
v -3.132381 -0.000004 10.000000
v -10.000000 0.000004 -10.000000
v -10.000000 -0.000004 10.000000
v -10.000000 40.000000 10.000013
v -3.098035 40.000000 -9.999987
v -10.000000 40.000000 -9.999987
v 2.765522 -2.000004 10.000000
v 2.765524 -1.999984 -50.000000
v 2.765524 -1.999984 -50.000000
v -3.132380 0.000004 -10.000000
v -3.098030 0.000004 -10.000000
v 2.765522 -2.000004 10.000000
v 2.765522 48.000000 10.000007
v 2.765524 48.000015 -49.999992
vt -0.003387 0.518472
vt 2.244713 0.906380
vt -0.003387 0.906380
vt 0.000119 0.751153
vt 0.673261 0.880572
vt 0.000119 0.975600
vt 0.000119 0.981789
vt 0.682084 0.975838
vt 0.682084 0.987741
vt 0.682006 0.999881
vt 0.000119 0.999880
vt 0.682006 0.987980
vt 0.996562 -0.004705
vt 0.099753 0.446141
vt 0.098776 -0.004705
vt 0.000811 0.990597
vt 1.123043 -0.356081
vt 1.123043 0.990597
vt 2.244713 0.518471
vt 0.673261 0.656125
vt 0.997538 0.446141
vt 0.000811 -0.356082
vn 0.0000 -0.0000 1.0000
vn -0.0906 0.0000 0.9959
vn 0.6053 -0.1803 0.7753
vn 0.0000 1.0000 0.0000
vn 0.0000 0.0000 0.0000
vn 1.0000 0.0000 0.0000
vn -1.0000 0.0000 -0.0000
s 1
f 11/1/1 6/2/2 2/3/3
f 10/4/4 3/5/4 1/6/4
f 7/7/5 8/8/5 9/9/5
f 7/10/5 9/11/5 12/12/5
f 6/13/2 3/14/6 2/15/3
f 13/16/7 9/17/7 7/18/7
f 11/1/1 5/19/1 6/2/2
f 10/4/4 2/20/4 3/5/4
f 6/13/2 4/21/6 3/14/6
f 13/16/7 14/22/7 9/17/7
